<svg version="1.1" xmlns="http://www.w3.org/2000/svg" viewBox="0 0 395 373.16402364191595" width="790" height="746.3280472838319">
  <!-- svg-source:excalidraw -->
  
  <defs>
    <style class="style-fonts">
      
    </style>
    
  </defs>
  <rect x="0" y="0" width="395" height="373.16402364191595" fill="#ffffff"></rect><g stroke-linecap="round" transform="translate(10 69) rotate(0 58.5 57.5)"><path d="M28.75 0 C44.92 -0.16, 62.72 0.44, 88.25 0 M28.75 0 C50.92 -0.47, 74.72 0.71, 88.25 0 M88.25 0 C106.86 0.13, 118.27 9.67, 117 28.75 M88.25 0 C109.52 1.96, 117.7 8.31, 117 28.75 M117 28.75 C117.32 44.16, 116.82 59.93, 117 86.25 M117 28.75 C115.95 43.94, 116.45 58.62, 117 86.25 M117 86.25 C117.59 106.52, 109.4 114.5, 88.25 115 M117 86.25 C116.96 107.63, 106.68 117.17, 88.25 115 M88.25 115 C69.41 116.12, 48.1 113.03, 28.75 115 M88.25 115 C72.2 115.07, 55.85 114.12, 28.75 115 M28.75 115 C8.99 116.37, 0.1 103.88, 0 86.25 M28.75 115 C9.41 116.9, 1.39 107.33, 0 86.25 M0 86.25 C0.17 70.64, 0.65 54.11, 0 28.75 M0 86.25 C-0.08 71.08, 0.81 56.01, 0 28.75 M0 28.75 C0.61 8.87, 9.3 1.4, 28.75 0 M0 28.75 C1.26 11.01, 11.17 0.44, 28.75 0" stroke="#1e1e1e" stroke-width="2" fill="none"></path></g><g stroke-linecap="round" transform="translate(186 189) rotate(0 67.5 70)"><path d="M85 17.75 C93.41 29.37, 104.57 41.62, 118 53.25 M85 17.75 C97.42 31.03, 109.44 43.62, 118 53.25 M118 53.25 C133.83 71.9, 134.05 69.28, 118 88.75 M118 53.25 C134.08 73.3, 135.17 70.03, 118 88.75 M118 88.75 C108.8 96.88, 98.1 110.72, 85 122.25 M118 88.75 C106.41 99.82, 95.51 111.6, 85 122.25 M85 122.25 C66.23 140.04, 69.62 141.67, 51 122.25 M85 122.25 C68.13 138.5, 67.8 141.21, 51 122.25 M51 122.25 C41.1 112.54, 25.69 98.94, 17 88.75 M51 122.25 C42.15 114.21, 35.18 106.16, 17 88.75 M17 88.75 C-1.73 71.01, -0.49 70.36, 17 53.25 M17 88.75 C0.72 71.32, -1.65 70.91, 17 53.25 M17 53.25 C30.88 39.3, 39.48 27.12, 51 17.75 M17 53.25 C27.23 42.52, 37.04 31.03, 51 17.75 M51 17.75 C67.28 0.11, 67.76 -0.47, 85 17.75 M51 17.75 C68.37 -0.09, 66.16 -2.25, 85 17.75" stroke="#1e1e1e" stroke-width="2" fill="none"></path></g><g stroke-linecap="round" transform="translate(246 10) rotate(0 69.5 68.5)"><path d="M93.26 4.05 C102.56 6.32, 111.45 14.24, 118.34 21.38 C125.23 28.51, 131.33 37.55, 134.57 46.86 C137.82 56.16, 138.88 67.58, 137.82 77.23 C136.75 86.88, 133.57 96.61, 128.21 104.77 C122.84 112.93, 114.23 120.74, 105.62 126.16 C97.01 131.59, 86.4 136.36, 76.55 137.32 C66.71 138.27, 55.92 135.55, 46.56 131.88 C37.21 128.21, 27.48 122.22, 20.43 115.31 C13.38 108.4, 7.7 99.57, 4.27 90.41 C0.84 81.25, -1.31 70.2, -0.16 60.37 C0.99 50.53, 5.52 39.92, 11.19 31.41 C16.86 22.91, 25.3 14.57, 33.88 9.33 C42.47 4.1, 52.37 0.73, 62.72 0.02 C73.07 -0.68, 90.23 3.83, 95.96 5.11 C101.7 6.38, 97.52 6.71, 97.11 7.68 M83.4 2.21 C92.99 2.96, 102.91 7.41, 110.89 13.03 C118.88 18.65, 126.6 27.06, 131.32 35.92 C136.04 44.79, 138.98 56.21, 139.19 66.22 C139.41 76.23, 136.46 87.01, 132.59 95.99 C128.71 104.97, 123.48 113.87, 115.96 120.11 C108.44 126.36, 97.5 130.68, 87.48 133.47 C77.46 136.26, 65.47 138.35, 55.83 136.85 C46.19 135.34, 37.81 130.43, 29.65 124.46 C21.49 118.48, 11.8 109.89, 6.89 100.99 C1.97 92.09, 0.39 81.18, 0.19 71.07 C-0.02 60.96, 1.84 49.46, 5.65 40.32 C9.45 31.17, 15.22 22.45, 23.03 16.19 C30.84 9.94, 42.53 5.18, 52.52 2.77 C62.52 0.35, 78.08 1.69, 82.98 1.72 C87.88 1.75, 82.34 1.72, 81.93 2.95" stroke="#1e1e1e" stroke-width="2" fill="none"></path></g><g stroke-linecap="round"><g transform="translate(55 271) rotate(0 42 46)"><path d="M0.37 -0.17 C14.34 15.11, 70.19 75.63, 84.32 91.1 M-0.9 -1.3 C12.89 14.15, 69.22 76.84, 83.54 92.16" stroke="#1e1e1e" stroke-width="2" fill="none"></path></g><g transform="translate(55 271) rotate(0 42 46)"><path d="M61.38 80.58 C68.63 85.01, 74.99 90.37, 83.54 92.16 M61.38 80.58 C69.79 85.26, 76.95 88.87, 83.54 92.16" stroke="#1e1e1e" stroke-width="2" fill="none"></path></g><g transform="translate(55 271) rotate(0 42 46)"><path d="M74.01 69.05 C76.88 77.46, 78.92 86.77, 83.54 92.16 M74.01 69.05 C78.02 77.69, 80.71 85.38, 83.54 92.16" stroke="#1e1e1e" stroke-width="2" fill="none"></path></g></g><mask></mask><g stroke-linecap="round"><g transform="translate(187 80) rotate(0 -16 17.5)"><path d="M0.54 -0.41 C-4.82 5.48, -27.75 29.7, -33.11 35.5 M-0.64 -1.67 C-5.56 3.85, -25.72 27.47, -30.98 33.64" stroke="#1e1e1e" stroke-width="2" fill="none"></path></g></g><mask></mask><g stroke-linecap="round" transform="translate(174 151) rotate(0 26 12.5)"><path d="M6.25 0 C18.54 -0.07, 28.53 0.24, 45.75 0 M6.25 0 C18.3 0.66, 28.79 -0.42, 45.75 0 M45.75 0 C48.68 -0.78, 53.5 1.37, 52 6.25 M45.75 0 C48.25 -1.49, 52.6 1.48, 52 6.25 M52 6.25 C52.11 11.5, 51.26 14.15, 52 18.75 M52 6.25 C51.49 11.51, 52.26 15.39, 52 18.75 M52 18.75 C53.66 24.73, 51.21 23.33, 45.75 25 M52 18.75 C53.89 24.18, 51.65 23.65, 45.75 25 M45.75 25 C35.38 23.57, 21.13 25.65, 6.25 25 M45.75 25 C37.4 24.31, 28.98 23.89, 6.25 25 M6.25 25 C2.79 23.41, 1 24.23, 0 18.75 M6.25 25 C2.8 24.33, -1.16 25, 0 18.75 M0 18.75 C-0.41 15.51, 0.19 9.86, 0 6.25 M0 18.75 C-0.68 15.86, 0.31 13.2, 0 6.25 M0 6.25 C0.15 2.51, 2.17 -0.17, 6.25 0 M0 6.25 C-1.89 1.34, 1.3 -2.25, 6.25 0" stroke="#1e1e1e" stroke-width="2" fill="none"></path></g></svg>